<svg version="1" xmlns="http://www.w3.org/2000/svg" width="1386.667" height="1386.667" viewBox="0 0 1040.000000 1040.000000"><path d="M857 .7c0 .5-1.5 2.4-3.3 4.3-1.7 1.9-5.9 6.6-9.2 10.5-3.3 3.8-6.7 7.7-7.5 8.5-.8.9-3.4 3.8-5.7 6.5C815.7 48.9 807.6 58 806.8 58c-.4 0-.8.6-.8 1.4 0 .8-.4 1.6-.9 1.8-.4.1-3.7 3.7-7.2 7.8s-6.7 7.7-7 8c-.3.3-3.9 4.3-7.9 9-3.9 4.7-8.4 9.8-9.9 11.5-1.5 1.6-6 6.8-10 11.4-4 4.6-7.7 8.9-8.4 9.6-.7.7-3.1 3.4-5.4 6.1-2.3 2.7-5.4 6.2-6.8 7.9-1.5 1.6-4.3 4.9-6.2 7.2-1.9 2.3-4.9 5.7-6.5 7.5-1.7 1.8-5.1 5.8-7.7 8.8-2.5 3-5.3 6.1-6.1 7-.8.9-4 4.5-7 8s-6.2 7.1-7 8c-.8.8-5.5 6.3-10.5 12-4.9 5.8-9.2 10.7-9.5 11-.3.3-3.2 3.6-6.5 7.5-3.3 3.8-6.3 7.2-6.6 7.5-.3.3-3.9 4.3-7.9 9s-7.7 8.6-8.1 8.8c-.5.2-.9.7-.9 1.2s-1.2 2.1-2.7 3.7c-3.3 3.4-13.7 15.3-16.7 19.1-1.8 2.3-2.1 4-2.1 11.9 0 5.3.4 9.4 1 9.6.6.2 36.2.3 79.3.2l78.2-.1V301h-14.7c-8.2 0-43.8.1-79.3.3l-64.5.2-.1 28.5c0 15.7.1 28.9.3 29.5.2.7 27.5 1 79.3 1h79v11H630.5l-.1 28.5c0 15.7.2 29.1.4 29.7.3 1 17.1 1.3 79.3 1.3H789v17.5h-78.2c-43.1 0-78.8.1-79.3.2-.7.2-1 10.6-1 29.6v29.2l78 .2c42.9.1 78.6.2 79.3.2.9.1 1.2 1.7 1 5.7l-.3 5.6-79 .2-79 .1v520l113.8.3 113.7.2V520c0-286-.2-520-.5-520s-.5.3-.5.7zM396.8 523.2c-1.6 1.6-2.8 3.1-2.8 3.3 0 .3-.8 1.3-1.7 2.3-1 1-3.6 4-5.8 6.6-2.2 2.7-4.7 5.6-5.6 6.5-.8.9-4.9 5.6-9 10.6-4.1 4.9-8.4 10.1-9.7 11.5-2.7 3-3.3 3.7-10.3 12-2.9 3.6-5.6 6.7-5.9 7-.3.3-3 3.4-6 7s-5.7 6.7-6 7c-.3.3-4.1 4.8-8.5 10s-8.2 9.7-8.5 10c-.3.3-2.7 3.2-5.5 6.5-2.7 3.3-5.4 6.5-6 7.1-.5.6-2.8 3.2-5 5.9-5.7 6.8-10.7 12.6-12.7 14.7-1 1-1.8 2.2-1.8 2.7s-.4 1.1-.9 1.3c-.4.1-5 5.2-10.1 11.3-5.1 6-9.6 11.2-9.9 11.5-.4.3-1.6 1.7-2.7 3.2-1.9 2.4-10.3 12.4-12.9 15.2-.6.6-3 3.6-5.5 6.6-2.5 3-5.2 6.2-6 7.1-.8.9-3.5 4-6 6.9-2.5 2.9-5.2 6.1-6 7-.8 1-3.1 3.7-5.2 6.1-2 2.4-4.4 5.4-5.5 6.5-1 1.2-3.6 4.3-5.8 6.9-2.2 2.6-4.8 5.7-5.9 6.9-1 1.1-3.5 4.1-5.5 6.6s-4.1 4.9-4.8 5.5c-.6.5-3.4 3.8-6.2 7.2l-5.1 6.2v132.3c.1 90.8.4 131.7 1.1 130.5.5-.9 2-2.7 3.2-4 1.2-1.2 4.2-4.7 6.7-7.6 2.5-3 5-5.9 5.5-6.5.9-.9 11.1-13 29.4-34.6 2.5-3 5.3-6.1 6.1-7 .8-.9 3.3-3.8 5.5-6.5 2.1-2.7 4.8-5.9 6-7.1 1.1-1.2 3.4-3.9 5-6 1.7-2.1 4.4-5.2 6-7 1.7-1.8 4-4.6 5.3-6.2 1.2-1.6 3.7-4.5 5.5-6.4 1.7-2 6.1-7.1 9.7-11.4 3.6-4.4 6.9-8.4 7.5-9 1.8-2.1 9.3-10.8 13.7-16 11-12.9 14.6-17.1 18.2-21.3 2.1-2.6 5-6 6.5-7.7 1.4-1.7 4.4-5.3 6.6-7.9 2.2-2.7 5.1-6.1 6.5-7.6 1.4-1.5 3.4-3.8 4.4-5.1 2.9-3.5 12-14.2 13.1-15.4.6-.6 2.4-2.8 4-4.9 1.7-2.1 3.9-4.7 5.1-5.9 1.1-1.2 5.8-6.6 10.4-12.1 4.6-5.5 8.6-10.2 8.9-10.5.6-.5 9.2-10.7 12.1-14.4.8-1 2.2-2.6 3.1-3.5.9-.9 2-2.7 2.5-4.1 1-3.3 1.1-38 .1-38-.5 0-.5-.5-.1-1.2 1-1.6 1.1-30.8.1-30.8-.5 0-.5-.5-.1-1.2 1-1.6 1.1-30.8.1-30.8-.5 0-.5-.5-.1-1.2 1-1.6 1.1-30.8.1-30.8-.5 0-.5-.5-.1-1.2 1-1.5 1.1-53.8.2-53.8-.4 0-.4-1 0-2.3.4-1.2.6-13.5.5-27.2-.4-29.9-.4-25.3-.1-35.3.2-4.6.1-8.5-.2-8.7-.3-.1-1.7 1.1-3.2 2.7zM615.4 524.7c-2.1 2.6-4.6 5.4-5.4 6.3-.8.8-2.5 2.8-3.7 4.3-1.1 1.5-4.3 5.2-7 8.3-9.7 11.3-12.9 15.1-16.8 19.8-2.2 2.7-4.8 5.8-5.9 7-1 1.1-3.7 4.3-6 7-2.2 2.7-4.6 5.4-5.1 6-.6.6-4.6 5.4-9 10.6-4.4 5.2-8.4 10-9 10.6-.5.6-3 3.5-5.5 6.4-2.5 2.9-4.9 5.8-5.5 6.4-1.3 1.5-11.8 13.8-12.8 15.1-.4.5-2.1 2.6-3.8 4.5-1.7 1.9-4.5 5.2-6.2 7.3-1.8 2.1-4.1 4.9-5.2 6.1-1.1 1.2-4 4.6-6.5 7.6-5.4 6.5-17.2 20.3-20.9 24.5-1.4 1.7-4.8 5.7-7.5 9s-5.6 6.7-6.5 7.5c-.9.8-3.4 3.8-5.6 6.5-2.1 2.8-4.2 5.2-4.5 5.5-.5.4-8.7 10.1-13.2 15.5-.9 1.1-2.6 3.1-3.8 4.5-1.2 1.4-3.8 4.5-5.8 6.9-2.1 2.4-4.2 4.9-4.7 5.5-.9.9-14 16.3-20 23.5-1.1 1.3-3.2 3.7-4.7 5.5-1.8 2-2.8 4.3-2.8 6.6-.4 15.6-.1 259.2.3 259.6.2.3 1.7-1 3.2-2.8 2.8-3.5 10.3-12.3 12-14.2.6-.6 3.5-4 6.5-7.6 3-3.6 6.1-7.2 7-8.1.8-.9 2.2-2.5 3-3.5 3.6-4.5 10.6-12.9 12-14.4.8-.8 3.3-3.7 5.5-6.4 4.1-4.9 5.2-6.3 11.7-13.8 2.1-2.4 5.2-6.1 7-8.2 1.8-2.2 5.1-6 7.3-8.6 5.5-6.3 10-11.7 14.3-16.9 2.1-2.5 4.4-5.2 5.2-6.1.8-.9 4.9-5.6 9-10.5s8.4-10 9.5-11.2c1.1-1.2 3.4-3.8 5-5.8 1.7-2 3.6-4.3 4.4-5.1.7-.8 2.9-3.4 4.8-5.7 4.5-5.4 10.5-12.5 13.3-15.7 1.2-1.4 4-4.7 6.3-7.5 2.3-2.7 6-7 8.2-9.5 2.2-2.5 6-7 8.5-10s5.3-6.2 6.3-7.2c.9-1 1.7-2.2 1.7-2.7s.4-1.1.9-1.3c.8-.3 3.2-3 12.6-14.2 2.2-2.6 5.3-6.2 6.8-7.9 1.6-1.8 4.3-4.9 6-7 1.8-2.2 4-4.9 5.1-6 1-1.2 3.7-4.4 6-7.1 2.2-2.6 5.3-6.2 6.7-7.9 2.2-2.4 2.5-3.6 1.9-5.8-.5-1.5-.5-3-.2-3.4.5-.5.7-7.6.2-10-.1-.6-.2-1.5 0-2 .4-2.3.1-18.5-.3-19.2-.3-.5-.2-1.5.2-2.1.4-.7.5-3.3.1-5.8-.4-2.4-.4-4.7 0-4.9.5-.3.4-2.1 0-4s-.4-3.7.1-4c.4-.3.4-1.7-.1-3-.5-1.4-.6-2.5-.2-2.5.8 0 .7-6.4-.2-8.6-.3-.7-.2-1.5.1-1.8.3-.3.5-2.9.4-5.8-.1-2.9-.2-5.8-.2-6.3.1-.6.1-3.9.1-7.5.1-3.6-.1-7.9-.3-9.7-.1-1.7.1-2.9.5-2.7.8.5.4-2.5-.7-6.3-.2-.6-.1-1.4.2-1.7.3-.3.5-4.7.4-9.8-.1-5.1-.2-10-.1-10.8.1-5.6 0-11.9-.4-14.3-.2-1.5 0-2.7.4-2.7.7 0 .4-6.5-.4-8.6-.3-.7-.2-1.5.1-1.8.7-.6.6-14-.1-18.9-.2-1.5 0-2.7.4-2.7.7 0 .4-6.5-.4-8.6-.3-.7-.2-1.5.1-1.8.7-.6.6-14-.1-18.9-.2-1.5 0-2.7.4-2.7.7 0 .4-6.5-.4-8.6-.3-.7-.2-1.5.1-1.8.7-.6.6-14-.1-18.9-.2-1.5 0-2.7.3-2.7.8 0 .6-8.8-.2-9.6-.3-.3-.2-1.7.3-3 1.4-3.7-.2-2.9-4.6 2.3z"/></svg>